<svg xmlns="http://www.w3.org/2000/svg" width="120.889" height="26.62" viewBox="0 0 120.889 26.62">
  <g id="Group_956" data-name="Group 956" transform="translate(1 1)">
    <g id="Group_953" data-name="Group 953" transform="translate(0 0)">
      <path id="Path_1462" data-name="Path 1462" d="M-69.586,1786.3v-.068a5.437,5.437,0,0,0,3.42-5.147,5.285,5.285,0,0,0-2.98-4.91,12.791,12.791,0,0,0-5.756-.982h-7.957v23.364h9.549a10.18,10.18,0,0,0,5.993-1.524,5.922,5.922,0,0,0,2.573-5.18C-64.744,1788.971-66.674,1787.008-69.586,1786.3Zm-7.822-7.043h2.269a4.12,4.12,0,0,1,2.438.474,2.31,2.31,0,0,1,1.151,2.165,2.465,2.465,0,0,1-1.151,2.235,4.252,4.252,0,0,1-2.573.508h-2.133Zm7.111,12.156h0a2.61,2.61,0,0,1-1.182,2.334,4.721,4.721,0,0,1-2.912.645h-3.016v-5.957h3.014a4.714,4.714,0,0,1,2.912.645,2.612,2.612,0,0,1,1.185,2.333v0Z" transform="translate(92.108 -1774.306)" fill="#fff" stroke="#fff" stroke-linecap="round" stroke-linejoin="round" stroke-width="2"/>
      <path id="Path_1463" data-name="Path 1463" d="M-40.219,1776.356a2.817,2.817,0,0,0-3.081-2.81,2.817,2.817,0,0,0-3.081,2.81,2.8,2.8,0,0,0,3.081,2.811,2.8,2.8,0,0,0,3.081-2.807Z" transform="translate(75.236 -1773.545)" fill="#fff" stroke="#fff" stroke-linecap="round" stroke-linejoin="round" stroke-width="2"/>
      <rect id="Rectangle_21" data-name="Rectangle 21" width="5.418" height="16.697" transform="translate(29.227 7.551)" fill="#fff" stroke="#fff" stroke-linecap="round" stroke-linejoin="round" stroke-width="2"/>
      <path id="Path_1464" data-name="Path 1464" d="M-22.93,1787.034c-5.283,0-9.277,3.318-9.277,8.7s4,8.668,9.278,8.668,9.244-3.285,9.244-8.668S-17.647,1787.034-22.93,1787.034Zm0,12.935c-2.4,0-3.792-1.862-3.792-4.334s1.388-4.334,3.792-4.334c2.37,0,3.792,1.862,3.792,4.334S-20.559,1799.969-22.929,1799.969Z" transform="translate(68.68 -1779.784)" fill="#fff" stroke="#fff" stroke-linecap="round" stroke-linejoin="round" stroke-width="2"/>
      <path id="Path_1465" data-name="Path 1465" d="M20.681,1776.945a9.352,9.352,0,0,0-6.095-1.761H6.223v23.367h5.485v-8.634h2.878a9.37,9.37,0,0,0,6.095-1.761,6.922,6.922,0,0,0,2.438-5.621A6.814,6.814,0,0,0,20.681,1776.945Zm-4.233,8.1a4.308,4.308,0,0,1-2.641.645H11.675v-6.268h2.133a4.3,4.3,0,0,1,2.641.645,2.926,2.926,0,0,1,1.117,2.472A3,3,0,0,1,16.449,1785.04Z" transform="translate(50.904 -1774.303)" fill="#fff" stroke="#fff" stroke-linecap="round" stroke-linejoin="round" stroke-width="2"/>
      <path id="Path_1466" data-name="Path 1466" d="M46.307,1787.033c-5.283,0-9.278,3.319-9.278,8.7s4,8.669,9.278,8.669,9.244-3.284,9.244-8.668h0C55.552,1790.352,51.59,1787.033,46.307,1787.033Zm3.793,8.6h0c0,2.473-1.422,4.334-3.792,4.334-2.4,0-3.792-1.863-3.792-4.334s1.388-4.334,3.792-4.334c2.37,0,3.792,1.863,3.792,4.334h0Z" transform="translate(36.656 -1779.784)" fill="#fff" stroke="#fff" stroke-linecap="round" stroke-linejoin="round" stroke-width="2"/>
      <path id="Path_1467" data-name="Path 1467" d="M82.28,1787.033c-5.283,0-9.278,3.319-9.278,8.7s4,8.669,9.278,8.669,9.244-3.284,9.244-8.668h0C91.524,1790.352,87.563,1787.033,82.28,1787.033Zm3.793,8.6h0c0,2.473-1.422,4.334-3.792,4.334-2.4,0-3.792-1.863-3.792-4.334s1.388-4.334,3.792-4.334c2.369,0,3.792,1.863,3.792,4.334h0Z" transform="translate(20.017 -1779.784)" fill="#fff" stroke="#fff" stroke-linecap="round" stroke-linejoin="round" stroke-width="2"/>
      <rect id="Rectangle_22" data-name="Rectangle 22" width="5.418" height="23.364" transform="translate(113.471 0.884)" fill="#fff" stroke="#fff" stroke-linecap="round" stroke-linejoin="round" stroke-width="2"/>
      <path id="Path_24" data-name="Path 24" d="M-89.912,1784.415c-3.812-2.512-10.155-.109-10.155-.109a21.017,21.017,0,0,1,5.411.807h0c4.918,1.509,5.612,4.7,9.556,6.4,4.861,2.092,8.558-2.048,8.558-2.048C-83.049,1792.609-85.533,1787.3-89.912,1784.415Z" transform="translate(100.067 -1778.043)" fill="#fff" stroke="#fff" stroke-linecap="round" stroke-linejoin="round" stroke-width="2"/>
    </g>
    <g id="Group_956-2" data-name="Group 956" transform="translate(0 0)">
      <path id="Path_1462-2" data-name="Path 1462" d="M-69.586,1786.3v-.068a5.437,5.437,0,0,0,3.42-5.147,5.285,5.285,0,0,0-2.98-4.91,12.791,12.791,0,0,0-5.756-.982h-7.957v23.364h9.549a10.18,10.18,0,0,0,5.993-1.524,5.922,5.922,0,0,0,2.573-5.18C-64.744,1788.971-66.674,1787.008-69.586,1786.3Zm-7.822-7.043h2.269a4.12,4.12,0,0,1,2.438.474,2.31,2.31,0,0,1,1.151,2.165,2.465,2.465,0,0,1-1.151,2.235,4.252,4.252,0,0,1-2.573.508h-2.133Zm7.111,12.156h0a2.61,2.61,0,0,1-1.182,2.334,4.721,4.721,0,0,1-2.912.645h-3.016v-5.957h3.014a4.714,4.714,0,0,1,2.912.645,2.612,2.612,0,0,1,1.185,2.333v0Z" transform="translate(92.108 -1774.306)" fill="#112b38"/>
      <path id="Path_1463-2" data-name="Path 1463" d="M-40.219,1776.356a2.817,2.817,0,0,0-3.081-2.81,2.817,2.817,0,0,0-3.081,2.81,2.8,2.8,0,0,0,3.081,2.811,2.8,2.8,0,0,0,3.081-2.807Z" transform="translate(75.236 -1773.545)" fill="#112b38"/>
      <rect id="Rectangle_21-2" data-name="Rectangle 21" width="5.418" height="16.697" transform="translate(29.227 7.551)" fill="#112b38"/>
      <path id="Path_1464-2" data-name="Path 1464" d="M-22.93,1787.034c-5.283,0-9.277,3.318-9.277,8.7s4,8.668,9.278,8.668,9.244-3.285,9.244-8.668S-17.647,1787.034-22.93,1787.034Zm0,12.935c-2.4,0-3.792-1.862-3.792-4.334s1.388-4.334,3.792-4.334c2.37,0,3.792,1.862,3.792,4.334S-20.559,1799.969-22.929,1799.969Z" transform="translate(68.68 -1779.784)" fill="#7ac231"/>
      <path id="Path_1465-2" data-name="Path 1465" d="M20.681,1776.945a9.352,9.352,0,0,0-6.095-1.761H6.223v23.367h5.485v-8.634h2.878a9.37,9.37,0,0,0,6.095-1.761,6.922,6.922,0,0,0,2.438-5.621A6.814,6.814,0,0,0,20.681,1776.945Zm-4.233,8.1a4.308,4.308,0,0,1-2.641.645H11.675v-6.268h2.133a4.3,4.3,0,0,1,2.641.645,2.926,2.926,0,0,1,1.117,2.472A3,3,0,0,1,16.449,1785.04Z" transform="translate(50.904 -1774.303)" fill="#112b38"/>
      <path id="Path_1466-2" data-name="Path 1466" d="M46.307,1787.033c-5.283,0-9.278,3.319-9.278,8.7s4,8.669,9.278,8.669,9.244-3.284,9.244-8.668h0C55.552,1790.352,51.59,1787.033,46.307,1787.033Zm3.793,8.6h0c0,2.473-1.422,4.334-3.792,4.334-2.4,0-3.792-1.863-3.792-4.334s1.388-4.334,3.792-4.334c2.37,0,3.792,1.863,3.792,4.334h0Z" transform="translate(36.656 -1779.784)" fill="#112b38"/>
      <path id="Path_1467-2" data-name="Path 1467" d="M82.28,1787.033c-5.283,0-9.278,3.319-9.278,8.7s4,8.669,9.278,8.669,9.244-3.284,9.244-8.668h0C91.524,1790.352,87.563,1787.033,82.28,1787.033Zm3.793,8.6h0c0,2.473-1.422,4.334-3.792,4.334-2.4,0-3.792-1.863-3.792-4.334s1.388-4.334,3.792-4.334c2.369,0,3.792,1.863,3.792,4.334h0Z" transform="translate(20.017 -1779.784)" fill="#112b38"/>
      <rect id="Rectangle_22-2" data-name="Rectangle 22" width="5.418" height="23.364" transform="translate(113.471 0.884)" fill="#112b38"/>
      <path id="Path_24-2" data-name="Path 24" d="M-89.912,1784.415c-3.812-2.512-10.155-.109-10.155-.109a21.017,21.017,0,0,1,5.411.807h0c4.918,1.509,5.612,4.7,9.556,6.4,4.861,2.092,8.558-2.048,8.558-2.048C-83.049,1792.609-85.533,1787.3-89.912,1784.415Z" transform="translate(100.067 -1778.043)" fill="#7ac231"/>
    </g>
  </g>
</svg>
